<?xml version="1.0" encoding="utf-8"?>
<!-- Generator: Adobe Illustrator 27.8.0, SVG Export Plug-In . SVG Version: 6.00 Build 0)  -->
<svg version="1.1"
	 id="svg27692" xmlns:svg="http://www.w3.org/2000/svg" xmlns:rdf="http://www.w3.org/1999/02/22-rdf-syntax-ns#" xmlns:dc="http://purl.org/dc/elements/1.1/" xmlns:cc="http://creativecommons.org/ns#"
	 xmlns="http://www.w3.org/2000/svg" xmlns:xlink="http://www.w3.org/1999/xlink" x="0px" y="0px" viewBox="0 0 1024 768"
	 style="enable-background:new 0 0 1024 768;" xml:space="preserve">
<style type="text/css">
	.st0{display:none;}
	.st1{display:inline;}
	.st2{display:inline;clip-path:url(#SVGID_00000128458500590810498150000001290829065992620988_);}
	.st3{fill:#FCFCFC;}
</style>
<g id="logo-group">
	
		<image style="overflow:visible;enable-background:new    ;" width="1024" height="1024" id="container" xlink:href="505D2A2F.png"  transform="matrix(0.4688 0 0 0.4688 272 144)">
	</image>
	<g id="logo-center" transform="translate(0 0)">
		<g class="st0">
			<defs>
				<polygon id="SVGID_1_" points="1,1 2,1 1,2 				"/>
			</defs>
			<defs>
				<polygon id="SVGID_00000147188642483563837580000001382359113000569269_" points="-1,-1 -2,-1 -1,-2 				"/>
			</defs>
			<clipPath id="SVGID_00000082367592290567089480000016915605993795972739_" class="st1">
				<use xlink:href="#SVGID_1_"  style="overflow:visible;"/>
			</clipPath>
			
				<clipPath id="SVGID_00000170246738812304237900000015145492612774539933_" style="display:inline;clip-path:url(#SVGID_00000082367592290567089480000016915605993795972739_);">
				<use xlink:href="#SVGID_00000147188642483563837580000001382359113000569269_"  style="overflow:visible;"/>
			</clipPath>
		</g>
		<g id="slogan" transform="translate(0 0)">
			<path id="path27700" class="st3" d="M401.4,515.8c3-0.7,5.5-3.4,5.5-7.4c0-4.2-3.1-8.2-9.2-8.2h-16.8v32.1h17.4
				c6,0,9.3-3.8,9.3-8.6C407.6,519.6,404.8,516.3,401.4,515.8z M396.4,525.6h-8v-5.9h8c2.1,0,3.4,1.2,3.4,3
				C399.8,525.3,397.7,525.6,396.4,525.6z M388.5,506.9h7.8c1.8,0,3,1.1,3,2.7s-1.2,2.7-3,2.7h-7.8V506.9z"/>
			<path id="path27702" class="st3" d="M419.1,511.5v-2.4h-6.8v23.2h6.8v-15.1c0.9-1.2,3.2-2.2,5-2.2c0.6,0,1.2,0,1.5,0.1l0.1,0
				v-6.7C423.3,508.5,420.8,509.8,419.1,511.5L419.1,511.5z"/>
			<path id="path27704" class="st3" d="M442,508.5c-3.6,0-7.7,1.2-10.7,4.1l2.7,4.7l0.6-0.6c1.8-1.7,3.9-2.5,6.3-2.5
				c2.7,0,4.4,1.2,4.4,3.2v2.4c-1.6-1.3-4-2.1-6.6-2.1c-3.7,0-8.1,2.1-8.1,7.5c0,5.2,4.4,7.7,8.1,7.7c2.6,0,5-0.9,6.6-2.3v1.7h6.8
				v-15C452.1,510.6,447.3,508.5,442,508.5L442,508.5z M441.1,522.5c1.8,0,3.4,0.6,4.2,1.5v2.4c-0.9,1-2.4,1.6-4.2,1.6
				c-1.8,0-3.7-0.8-3.7-2.7C437.4,523.2,439.4,522.5,441.1,522.5z"/>
			<path id="path27706" class="st3" d="M477.9,525.1c-0.2-6-5.3-7.2-9.2-8c-1.9-0.4-3.9-0.8-3.9-1.5c0-1,1.2-1.6,3-1.6
				c2.8,0,5.2,1.2,6.4,2.4l0.6,0.7l2.9-4.9c-2.6-2.3-6-3.6-9.9-3.6c-5.9,0-9.3,3.2-9.5,6.9v0.4v0.1v0.1v0.2c0.2,5.7,4.9,6.8,8.9,7.6
				c2.2,0.4,4.2,0.8,4.2,1.8c0,1.6-2.3,1.8-3.2,1.8c-2.7,0-6-1.5-7.5-3l-0.6-0.6l-3,4.9c2.6,2.8,6.8,4,10.8,4c6.2,0,9.8-3,10-7v-0.4
				C477.9,525.4,477.9,525.2,477.9,525.1L477.9,525.1z"/>
			<path id="path27708" class="st3" d="M494,508.5c-3.6,0-7.7,1.2-10.7,4.1l2.7,4.7l0.6-0.6c1.8-1.7,3.9-2.5,6.3-2.5
				c2.7,0,4.4,1.2,4.4,3.2v2.4c-1.6-1.3-4-2.1-6.6-2.1c-3.7,0-8.1,2.1-8.1,7.5c0,5.2,4.4,7.7,8.1,7.7c2.6,0,5-0.9,6.6-2.3v1.7h6.8
				v-15C504.1,510.6,499.3,508.5,494,508.5L494,508.5z M493.1,522.5c1.8,0,3.4,0.6,4.2,1.5v2.4c-0.9,1-2.4,1.6-4.2,1.6
				c-1.8,0-3.7-0.8-3.7-2.7C489.5,523.2,491.4,522.5,493.1,522.5z"/>
			<path id="path27710" class="st3" d="M521.3,500.3v32h7.6v-12.5h14.7v-6.8h-14.7v-6H544v-6.8H521.3z"/>
			<path id="path27712" class="st3" d="M552.8,507.3c2.2,0,4-1.8,4-4c0-2.2-1.8-3.9-4-3.9c-2.2,0-4,1.8-4,3.9
				S550.6,507.3,552.8,507.3z M549.4,532.3h6.8v-23.2h-6.8V532.3z"/>
			<path id="path27714" class="st3" d="M568.3,511.5v-2.4h-6.8v23.2h6.8v-15.1c0.9-1.2,3.2-2.2,5-2.2c0.6,0,1.2,0,1.5,0.1l0.1,0
				v-6.7C572.5,508.5,570,509.8,568.3,511.5z"/>
			<path id="path27716" class="st3" d="M607.8,508.5c-3.6,0-6.6,2.1-8,4.2c-0.9-2.6-3-4.2-6.4-4.2c-2.9,0-5.5,1.5-6.9,2.8v-2.3h-6.7
				v23.2h6.8V517c0.8-1.1,2.4-2.3,4.1-2.3c1.2,0,2.8,0.3,2.8,3v14.6h7.5v-15.5c0.8-1.1,2.3-2.3,4.1-2.3c1.2,0,2.8,0.3,2.8,3v14.6
				h6.8v-16.8C614.7,510.8,612.2,508.5,607.8,508.5L607.8,508.5z"/>
			<path id="path27718" class="st3" d="M631.6,508.5c-7.1,0-12,5.5-12,12.2c0,7.4,5.3,12.2,12.4,12.2c3.6,0,7.3-1,10-3.7l-3.1-4.5
				l-0.6,0.6c-1.4,1.4-4,2.1-5.7,2.1c-3,0-5.2-1.6-5.9-4h16.4v-2C643.2,513.7,638.5,508.5,631.6,508.5z M631.6,514.1
				c3.1,0,4.8,2.2,5,4.4h-10.1C626.9,516.1,628.6,514.1,631.6,514.1z"/>
		</g>
		<g id="title" transform="translate(0 0)">
			<path id="path27721" class="st3" d="M396.9,469.4l-15.6-7.5c-3.6,5.6-9.8,9.3-17,9.3c-9.1,0-16.6-5.8-19.2-14h-17.5
				c2.9,17.7,18.3,31.2,36.7,31.2C378.4,488.4,390.5,480.7,396.9,469.4z M345.1,445.1c2.6-8.1,10.3-14,19.3-13.9
				c7.1,0,13.5,3.8,17,9.4l15.4-7.7c-6.4-11.3-18.6-18.9-32.5-18.9c-18.5,0-33.9,13.4-36.7,31.1H345.1z"/>
			<path id="path27723" class="st3" d="M433.1,433.5c-8.2,0-17.4,2.8-24,9.3l6,10.6l1.4-1.3c4.1-3.8,8.9-5.7,14.1-5.7
				c6,0,9.9,2.8,9.9,7.2v5.4c-3.6-3-9-4.8-14.9-4.8c-8.3,0-18.1,4.6-18.1,16.8c0,11.7,9.8,17.3,18.1,17.3c5.8,0,11.2-1.9,14.9-5.2
				v3.9H456v-33.7C455.9,438.3,444.9,433.5,433.1,433.5z M431.1,465.1c4,0,7.6,1.3,9.5,3.5v5.4c-1.9,2.3-5.4,3.6-9.5,3.6
				c-4.1,0-8.3-1.8-8.3-6.2C422.8,466.7,427.2,465.1,431.1,465.1z"/>
			<path id="path27725" class="st3" d="M482.1,440.2v-5.4h-15.2V487h15.2v-33.9c2.1-2.6,7.2-4.9,11.3-4.9c1.3,0,2.6,0,3.5,0.2
				l0.3,0.1v-15C491.5,433.5,485.9,436.5,482.1,440.2z"/>
			<path id="path27727" class="st3" d="M548.2,434.8l-11.9,32l-12-32H508l21,52.2h14.8l21-52.2H548.2z"/>
			<path id="path27729" class="st3" d="M605.5,457.3c-7.8,0-13.3,0.9-16.3,2.7s-4.5,4.9-4.5,9.2c0,3.4,1.1,6.2,3.4,8.2
				c2.3,2,5.4,3,9.3,3c5.4,0,9.7-1.9,12.9-5.7c3.3-3.8,4.9-8.9,4.9-15.2v-2.2H605.5z M624.8,453.3V487h-9.7v-9c-2.2,3.6-5,6.2-8.3,8
				c-3.3,1.7-7.3,2.5-12.1,2.5c-6,0-10.9-1.7-14.4-5.1c-3.6-3.4-5.3-8-5.3-13.7c0-6.6,2.2-11.7,6.6-15c4.5-3.4,11.1-5.1,19.9-5.1
				h13.6v-0.9c0-4.5-1.5-7.9-4.4-10.3c-2.9-2.5-7-3.7-12.3-3.7c-3.4,0-6.7,0.4-9.9,1.2s-6.3,2-9.2,3.6v-9c3.6-1.4,7-2.4,10.3-3.1
				c3.3-0.7,6.6-1.1,9.8-1.1c8.5,0,14.9,2.2,19.1,6.6S624.8,444.3,624.8,453.3z M599.6,414.8l-3-2.9c-0.8-0.7-1.5-1.2-2.1-1.5
				c-0.6-0.4-1.1-0.5-1.5-0.5c-1.3,0-2.3,0.7-3,2c-0.6,1.3-1,3.3-1.1,6.2h-6.6c0.1-4.7,1-8.4,2.8-11c1.8-2.6,4.3-3.9,7.5-3.9
				c1.3,0,2.6,0.2,3.7,0.7s2.3,1.3,3.6,2.5l3,2.9c0.8,0.7,1.4,1.2,2,1.6c0.6,0.3,1.1,0.5,1.6,0.5c1.3,0,2.3-0.6,3-1.9
				c0.6-1.3,1-3.4,1.1-6.3h6.6c-0.1,4.7-1,8.4-2.8,11c-1.8,2.6-4.3,3.8-7.5,3.8c-1.3,0-2.6-0.2-3.7-0.7S600.9,415.9,599.6,414.8z"/>
			<path id="path27731" class="st3" d="M669,433.7c-15.1,0-27.3,12.3-27.3,27.4c0,15.1,12.2,27.3,27.3,27.3s27.3-12.2,27.3-27.3
				C696.4,446,684.2,433.7,669,433.7z M669,473.2c-6.7,0-12.2-5.4-12.2-12.1c0-6.7,5.5-12.1,12.2-12.1s12.2,5.4,12.2,12.1
				C681.2,467.9,675.7,473.2,669,473.2z"/>
		</g>
		
			<image style="overflow:visible;enable-background:new    ;" width="200" height="200" id="icon" xlink:href="505D2A2D.png"  transform="matrix(0.75 0 0 0.75 437 235.1092)">
		</image>
	</g>
</g>
</svg>
